<svg version="1.1" id="Layer_1" xmlns="http://www.w3.org/2000/svg" xmlns:xlink="http://www.w3.org/1999/xlink" x="0px" y="0px"
	 width="100%" viewBox="0 0 216 192" enable-background="new 0 0 216 192" xml:space="preserve">
<path fill="#FEFEFE" opacity="1.000000" stroke="none" 
	d="
M1.351220,184.263184 
	C1.000000,124.544678 1.031543,65.089287 0.920178,5.634175 
	C0.913626,2.135906 1.307711,0.875452 5.359485,0.884860 
	C74.473846,1.045342 143.588730,1.029695 212.703262,0.912626 
	C216.172226,0.906750 217.119629,1.455127 217.109833,5.197324 
	C216.953873,64.818794 217.000000,124.440804 217.000000,184.531342 
	C213.044220,187.570145 208.624115,185.989243 204.426361,186.369492 
	C202.458969,186.547668 200.459793,186.420746 198.020416,186.230545 
	C193.171295,185.075638 188.658859,185.739395 183.782227,185.192810 
	C182.459229,184.879486 181.697144,184.435211 180.760010,183.477676 
	C179.455200,181.114105 179.436890,178.911652 179.734146,176.779678 
	C181.400009,164.831665 180.158859,152.822067 180.636230,140.854309 
	C180.803223,136.667740 179.284866,134.006012 175.465378,132.168961 
	C165.109451,127.188118 154.900208,121.901550 144.556259,116.896538 
	C140.291489,114.832985 137.922089,111.889053 136.990601,107.175301 
	C133.374741,88.877327 128.943665,70.749733 125.335770,52.446651 
	C124.718330,49.314342 124.708099,46.162220 124.522400,43.005436 
	C123.821686,31.093279 117.177795,26.360727 105.676575,29.596317 
	C102.530685,30.481337 99.480042,30.486334 96.333244,29.617651 
	C84.558746,26.367275 77.941177,30.232471 76.847244,42.409142 
	C74.943130,63.603996 68.753250,83.875877 64.689072,104.598969 
	C63.434586,110.995537 60.407997,115.325607 54.256638,118.059898 
	C44.980625,122.183105 36.086411,127.153297 26.924067,131.542343 
	C22.969805,133.436554 21.263824,136.114975 21.349216,140.544205 
	C21.615664,154.364914 21.185160,168.192703 21.592880,182.429474 
	C20.936491,185.796234 18.874691,186.265625 16.353565,185.678726 
	C14.614281,185.273834 12.956037,184.431427 10.681511,185.038025 
	C7.378705,185.413300 4.472054,185.947571 1.351220,184.263184 
z"/>
<path fill="#FAFAFA" opacity="1.000000" stroke="none" 
	d="
M71.232147,192.720581 
	C68.629440,193.000000 66.258888,193.000000 63.444164,193.000000 
	C61.923626,191.974182 61.948280,190.669495 62.126656,189.355896 
	C62.361889,187.623611 61.892387,186.409500 59.931507,186.360168 
	C57.738861,186.305008 54.770535,185.542435 56.706627,189.647369 
	C57.126732,190.538086 56.991096,191.568390 56.229225,192.735535 
	C45.645771,193.000000 35.291542,193.000000 24.468658,193.000000 
	C22.064369,188.917450 24.794678,187.377472 27.818100,186.005386 
	C30.175240,184.935684 33.099838,185.364731 35.353149,182.992340 
	C37.592136,181.477875 39.796574,181.718460 41.939053,181.707916 
	C49.584217,181.670303 57.229916,181.660492 64.874771,181.708908 
	C68.061203,181.729095 70.554199,180.760895 72.735336,178.261658 
	C80.393196,169.486938 89.235474,161.887909 97.523148,153.736176 
	C100.286102,151.018539 103.010223,151.788727 105.399910,154.172546 
	C111.041069,159.799850 116.795616,165.338181 122.133423,171.236938 
	C125.473160,174.927643 129.169952,178.300049 132.411499,182.603119 
	C132.933334,184.052185 132.858902,185.085892 131.821014,186.267426 
	C130.179581,187.046951 128.842133,186.775497 127.105148,186.679810 
	C124.493980,187.282639 122.266060,187.382538 119.589714,186.945557 
	C106.477127,186.187134 93.782501,186.752258 80.684891,186.525391 
	C79.779312,186.471725 79.283012,186.410919 78.785133,186.409286 
	C72.874359,186.389801 72.874352,186.391373 71.232147,192.720581 
z"/>
<path fill="#F8F9F9" opacity="1.000000" stroke="none" 
	d="
M130.918427,186.330933 
	C131.896210,185.485535 131.995911,184.622162 131.997498,183.381683 
	C133.208588,181.725204 134.735962,181.787292 136.747681,182.193848 
	C138.486847,183.120132 139.864304,183.584839 141.423477,183.585831 
	C152.407135,183.592789 163.390869,183.670349 174.374298,183.536194 
	C175.216309,183.525894 176.018845,183.315750 177.169830,182.725159 
	C178.443665,182.187500 179.323349,182.152679 180.583435,182.740662 
	C181.464447,183.250565 181.968033,183.513962 182.734283,183.887772 
	C185.329529,186.323196 186.616470,188.962112 185.248154,192.661835 
	C168.645767,193.000000 152.291550,193.000000 135.468658,193.000000 
	C134.278976,190.449326 133.151123,188.165787 130.918427,186.330933 
z"/>
<path fill="#E6E8EA" opacity="1.000000" stroke="none" 
	d="
M78.699677,185.342514 
	C92.483841,185.243286 105.963806,184.474197 119.724442,185.694824 
	C120.292679,188.324829 119.607300,190.428986 118.241737,192.714203 
	C104.979103,193.000000 91.958214,193.000000 78.468658,193.000000 
	C76.193817,190.451447 76.369774,188.007233 78.699677,185.342514 
z"/>
<path fill="#EFEFEF" opacity="1.000000" stroke="none" 
	d="
M185.468658,193.000000 
	C185.313309,190.029907 183.861954,187.470062 183.039978,184.376038 
	C187.478760,184.222595 191.991470,183.473831 196.733917,184.732986 
	C203.381790,186.157486 209.804794,185.144806 216.594025,185.785187 
	C217.000000,193.000000 217.000000,193.000000 210.159027,193.000000 
	C202.085129,193.000000 194.011215,193.000000 185.468658,193.000000 
z"/>
<path fill="#FAFAFB" opacity="1.000000" stroke="none" 
	d="
M35.736343,182.850250 
	C36.236889,185.754150 34.475624,185.658813 32.623650,186.154022 
	C29.109013,187.093872 24.317102,186.627396 24.005917,192.619110 
	C22.285643,193.000000 20.571283,193.000000 18.428463,193.000000 
	C15.562373,190.154831 10.897486,189.278625 10.778203,184.288483 
	C12.437383,182.422989 13.937961,182.877792 15.386664,183.929459 
	C17.225746,185.264526 18.966022,185.530136 20.817722,183.384247 
	C21.190947,182.957001 21.383896,182.837738 21.909370,182.786896 
	C24.091013,184.949249 25.286512,182.781601 27.078747,182.043182 
	C30.161045,181.520279 32.880390,181.183853 35.736343,182.850250 
z"/>
<path fill="#F6F6F6" opacity="1.000000" stroke="none" 
	d="
M10.545862,183.997681 
	C11.301264,188.441376 16.860847,188.501373 17.964355,192.653320 
	C15.056718,193.000000 12.113436,193.000000 9.170154,193.000000 
	C1.000000,193.000000 1.000000,193.000000 1.000000,184.491058 
	C4.030586,183.999466 7.061172,183.998932 10.545862,183.997681 
z"/>
<path fill="#EFEFEF" opacity="1.000000" stroke="none" 
	d="
M118.460632,193.000000 
	C117.760056,190.656891 118.562462,188.546448 119.740555,186.224670 
	C122.115067,185.858505 124.286522,186.435974 126.633011,185.160431 
	C128.333542,187.378403 131.208511,189.027573 130.232193,192.690414 
	C126.307091,193.000000 122.614182,193.000000 118.460632,193.000000 
z"/>
<path fill="#FAFAFB" opacity="1.000000" stroke="none" 
	d="
M56.437500,193.000000 
	C55.935303,191.544220 56.316326,189.953079 55.153393,188.770309 
	C52.011784,185.575104 53.557880,184.994568 57.050598,184.962402 
	C64.029068,184.898209 64.028244,184.808350 63.001110,192.584213 
	C60.958332,193.000000 58.916668,193.000000 56.437500,193.000000 
z"/>
<path fill="#EFEFEF" opacity="1.000000" stroke="none" 
	d="
M78.588486,185.016479 
	C78.363762,187.362152 77.706657,189.698074 78.000168,192.584381 
	C75.958336,193.000000 73.916664,193.000000 71.437500,193.000000 
	C70.847076,185.115860 70.847076,185.115860 78.588486,185.016479 
z"/>
<path fill="#F6F6F6" opacity="1.000000" stroke="none" 
	d="
M130.416656,193.000000 
	C130.930054,189.789886 126.209808,188.924774 126.996407,185.389771 
	C128.097534,185.316803 129.202698,185.626587 130.653503,185.968796 
	C133.415146,187.412933 137.241150,187.912064 135.035385,192.646088 
	C133.611115,193.000000 132.222214,193.000000 130.416656,193.000000 
z"/>
<path fill="#AEAEAE" opacity="1.000000" stroke="none" 
	d="
M217.000000,185.750000 
	C210.531891,185.878387 204.063766,185.756775 197.306641,185.337830 
	C203.367004,185.001129 209.716385,184.961731 216.532867,184.961166 
	C217.000000,185.000000 217.000000,185.500000 217.000000,185.750000 
z"/>
<path fill="#050505" opacity="1.000000" stroke="none" 
	d="
M22.367569,183.363449 
	C21.835842,183.080978 21.671661,183.024551 21.252737,183.022186 
	C18.840967,179.918198 19.917173,176.310135 19.856670,172.960419 
	C19.646292,161.312805 19.912567,149.657349 19.817833,138.006332 
	C19.791500,134.767776 20.917402,132.957413 23.920536,131.526947 
	C34.623993,126.428627 45.090069,120.827423 55.837509,115.828285 
	C59.943192,113.918533 61.941784,110.884354 62.828823,106.915863 
	C66.929367,88.570526 70.976639,70.212280 74.853844,51.818790 
	C75.738548,47.621754 74.975800,43.215576 75.925110,38.945118 
	C78.195801,28.730471 86.586327,24.083256 96.189735,28.169847 
	C99.346703,29.513250 102.160393,29.516764 105.249390,28.400248 
	C116.521690,24.325880 125.103134,29.307898 125.794899,41.374046 
	C126.807152,59.030254 132.282959,75.745872 135.411072,92.943985 
	C136.384521,98.295952 138.046661,103.537125 138.781784,108.912682 
	C139.241531,112.274399 141.043671,113.683731 143.725937,115.001205 
	C155.074509,120.575394 166.263412,126.485428 177.723282,131.815613 
	C181.104706,133.388367 181.931747,135.400391 181.933990,138.660416 
	C181.943924,153.143875 181.889435,167.623795 180.999023,182.537872 
	C180.220047,183.028732 179.479263,183.070312 178.375992,183.193451 
	C175.490646,184.510574 172.785965,183.995697 170.170609,183.962357 
	C159.399338,183.825043 148.619949,184.445541 137.423889,183.406830 
	C135.605057,183.112274 134.218491,183.052246 132.415497,183.020142 
	C123.008690,173.960815 113.859337,165.022873 105.111748,155.707642 
	C101.930428,152.319870 100.362015,152.220230 97.073181,155.772919 
	C88.957016,164.540207 79.609184,172.118362 71.878052,181.306931 
	C70.428131,183.030182 68.085411,183.035599 65.876366,183.025955 
	C56.226543,182.983795 46.576393,183.016312 36.463196,183.098022 
	C32.966019,183.130798 29.932005,183.087280 26.449303,183.120651 
	C24.979433,183.889069 23.899240,184.088928 22.367569,183.363449 
z"/>
<path fill="#EFEFEF" opacity="1.000000" stroke="none" 
	d="
M137.102448,183.554276 
	C150.357758,183.145981 163.723877,183.119644 177.551758,183.184143 
	C177.736740,184.716446 176.710587,184.999771 175.442215,184.997086 
	C163.226379,184.971130 151.010437,184.970596 138.794891,184.898849 
	C138.265823,184.895737 137.740387,184.271271 137.102448,183.554276 
z"/>
<path fill="#FAFAFA" opacity="1.000000" stroke="none" 
	d="
M22.040060,183.460754 
	C23.070875,183.099533 24.141724,183.061646 25.606594,183.110641 
	C25.853113,184.422226 25.474476,185.564407 24.047075,185.658203 
	C22.862810,185.736023 22.380220,184.787491 22.040060,183.460754 
z"/>
<path fill="#FEC43B" opacity="1.000000" stroke="none" 
	d="
M107.289948,144.697052 
	C106.422318,144.527756 105.839844,144.153717 105.120979,143.550354 
	C103.086098,140.885315 103.421455,138.000381 103.435989,135.215698 
	C103.462723,130.092606 103.187180,124.963348 103.742317,119.398682 
	C107.992760,108.924362 111.747246,98.803551 110.943146,87.214340 
	C112.263557,82.272850 110.768806,77.545525 112.277222,72.655701 
	C115.562347,70.368958 116.355797,72.903954 116.885048,74.876083 
	C117.651505,77.732117 118.059586,80.693565 118.338577,83.666161 
	C119.979645,101.151665 123.065292,118.318901 129.764679,134.677185 
	C130.584824,136.679764 131.439743,138.641663 133.066986,140.655731 
	C134.031876,144.388702 131.314590,145.577164 129.014771,147.446198 
	C128.057083,148.077576 127.382690,148.417908 126.298111,148.722595 
	C123.775337,148.884659 122.699982,147.478897 121.818649,145.801819 
	C121.126137,144.484024 120.369637,143.218140 119.212181,142.232574 
	C114.567772,138.277863 111.738144,138.823288 107.289948,144.697052 
z"/>
<path fill="#FFC538" opacity="1.000000" stroke="none" 
	d="
M94.406464,40.000427 
	C94.769264,40.044964 94.952950,40.458187 94.995125,40.680325 
	C95.422104,41.469143 95.677261,42.105865 95.494736,42.771240 
	C91.807106,56.214058 93.032707,69.658806 95.378296,83.122597 
	C95.728813,85.134605 96.351524,86.960602 97.689316,89.041481 
	C99.301384,100.683464 98.334190,111.955040 98.455383,123.669235 
	C98.435646,124.739914 98.447044,125.348770 98.484406,126.407463 
	C98.346779,128.631958 98.353615,130.408813 98.432678,132.631714 
	C98.477219,134.883850 98.459557,136.686935 97.529770,138.787476 
	C95.999847,140.226456 94.523842,140.260544 92.565681,139.830002 
	C81.779869,132.485519 81.067749,121.816628 82.017273,110.718033 
	C82.326508,107.103554 82.935539,103.473213 83.583084,99.459709 
	C83.340881,93.768951 85.380356,88.928307 86.582901,83.948654 
	C87.698227,79.330170 88.009048,74.800186 86.725800,69.828796 
	C86.281586,68.990425 86.097862,68.483467 85.887924,67.566071 
	C85.603867,65.083565 85.831894,63.036449 86.481041,60.663536 
	C86.724426,58.855087 86.548897,57.487293 85.600815,55.913319 
	C85.593613,53.108181 86.021530,50.702370 86.511696,47.935139 
	C88.358200,44.359322 90.487610,41.454323 94.406464,40.000427 
z"/>
<path fill="#3493DA" opacity="1.000000" stroke="none" 
	d="
M128.583084,147.685730 
	C129.685425,145.657684 131.233948,144.159927 132.926315,142.367752 
	C133.268509,141.710373 133.405319,141.324936 133.639206,140.644836 
	C133.912552,140.199539 134.037582,140.030182 134.584717,139.380402 
	C135.155640,138.742035 135.304443,138.584076 135.681152,138.189484 
	C139.341034,135.143463 141.557343,130.905243 146.374390,129.274994 
	C147.369583,129.265976 148.031769,129.314377 148.907669,129.632812 
	C149.341248,130.712112 149.978058,130.719025 150.954529,130.786865 
	C151.274994,130.884766 151.677887,130.904953 151.840485,131.024323 
	C152.320587,131.570877 152.593155,132.025024 152.981583,132.870911 
	C154.730576,138.488266 158.401077,142.381592 161.830673,146.409760 
	C165.381897,150.580780 166.467514,156.652390 164.216934,160.626022 
	C161.942444,164.641907 157.368896,166.257538 150.947968,164.937988 
	C149.753845,164.020264 152.590775,162.267807 149.728958,161.953735 
	C146.675232,161.618591 143.048706,161.108444 143.426865,156.654037 
	C143.686188,153.599365 148.956909,150.014557 152.446045,150.053009 
	C153.706314,150.066925 154.849533,151.081970 156.590698,150.304703 
	C153.817764,147.853653 151.037811,147.335052 147.828461,148.594070 
	C144.061081,150.071991 140.943649,152.477554 137.765961,155.420319 
	C134.971588,156.169403 133.928345,154.341385 132.772873,152.759384 
	C131.612244,151.170334 130.625931,149.443787 128.583084,147.685730 
z"/>
<path fill="#3B9AE3" opacity="1.000000" stroke="none" 
	d="
M36.758751,137.040192 
	C36.979473,136.407715 37.184013,136.171692 37.794529,136.122009 
	C39.841705,136.473083 41.285172,135.782181 42.766922,134.336365 
	C46.667652,131.607315 50.822071,130.212036 55.387684,128.901352 
	C56.510628,128.954056 57.063271,129.378998 57.828796,130.130707 
	C58.723656,131.125992 59.380333,131.854385 60.046326,133.053375 
	C61.135902,136.017975 61.737682,138.579742 58.511475,140.624161 
	C53.881378,140.711197 49.659065,139.942673 45.374344,141.384064 
	C37.392746,144.069046 34.412369,148.533936 35.531849,157.006775 
	C36.644917,165.431061 40.792187,168.604843 49.183590,167.250809 
	C51.807663,166.827377 54.459152,166.761871 57.073971,166.309158 
	C64.287727,165.060165 69.449753,161.080399 73.030869,154.347809 
	C74.803589,152.762054 76.479790,153.158966 78.500092,153.749802 
	C79.046776,153.958725 79.256721,154.058701 79.742081,154.365814 
	C80.472778,155.129395 80.456703,155.824982 80.786728,156.737427 
	C80.602585,159.541397 78.083267,160.244675 76.402176,162.068680 
	C75.078468,162.147232 74.698471,162.870285 74.217545,163.909241 
	C73.581665,164.746307 73.076485,165.303696 72.293320,165.935211 
	C62.360695,170.880249 52.183846,173.245407 41.373821,171.927231 
	C35.116840,171.164246 32.913761,166.262466 31.039265,160.679626 
	C30.612226,159.803131 30.509798,159.269272 30.614643,158.305939 
	C31.277571,154.146927 31.413471,150.303543 30.756510,146.630463 
	C30.071774,142.802094 31.124084,140.262955 34.584511,138.075836 
	C34.803913,137.733780 34.923134,137.813766 34.851547,137.808441 
	C35.384907,137.651413 35.999073,137.532425 36.758751,137.040192 
z"/>
<path fill="#FDCA42" opacity="1.000000" stroke="none" 
	d="
M134.279022,140.713470 
	C133.881989,141.270569 133.726105,141.583511 133.320190,141.984894 
	C131.551239,140.911865 130.154068,139.907990 129.325607,137.850006 
	C124.868835,126.778809 121.579117,115.365944 119.481522,103.666290 
	C117.887543,94.775604 117.103493,85.738243 116.019287,76.758873 
	C115.795494,74.905426 115.653496,73.109703 113.373398,72.064804 
	C110.946358,69.801888 111.638313,67.035110 111.441124,64.452698 
	C111.010361,58.811615 112.324615,53.287361 112.587471,47.690620 
	C112.663467,46.072411 112.862480,44.320431 115.262115,43.807335 
	C116.167641,48.697197 116.624634,53.418056 117.048904,58.568832 
	C116.688492,61.971649 117.314911,64.778702 118.712524,67.744385 
	C118.978310,68.732170 119.023689,69.465569 119.086929,70.571495 
	C119.341034,77.890175 121.271370,84.624847 121.662796,91.554146 
	C122.085648,99.039635 123.673767,106.287682 126.180992,113.349358 
	C126.622925,114.594078 126.657318,116.103462 127.545906,117.051338 
	C131.787003,121.575302 132.666534,127.723869 135.589401,133.328812 
	C136.168625,135.044525 136.293030,136.399597 135.843781,138.166290 
	C135.610992,138.810150 135.517517,139.067368 135.239319,139.691223 
	C135.054626,140.057846 134.996307,140.008377 135.028534,140.027405 
	C134.880569,140.187393 134.700363,140.328354 134.279022,140.713470 
z"/>
<path fill="#FCC131" opacity="1.000000" stroke="none" 
	d="
M115.717484,43.596413 
	C114.304054,44.279984 114.067207,45.287910 113.987801,46.550602 
	C113.474388,54.714489 112.586403,62.861813 113.002563,71.531029 
	C112.750092,76.800583 113.512222,81.631325 112.293465,86.706268 
	C108.989204,86.675323 108.379478,83.218040 105.624260,81.965271 
	C105.918091,73.720085 106.235390,65.775208 108.283409,58.029751 
	C109.641434,52.893787 109.647255,48.081673 104.167862,44.531647 
	C103.765640,44.014793 103.662384,43.766907 103.698296,43.141026 
	C104.274498,41.918240 104.572556,40.954826 105.173927,40.250317 
	C107.189781,37.888802 109.737434,36.409134 112.913467,37.101158 
	C116.336433,37.846985 114.434082,41.325516 115.717484,43.596413 
z"/>
<path fill="#FCCE4A" opacity="1.000000" stroke="none" 
	d="
M135.422333,133.990143 
	C132.936264,131.374039 131.301163,128.566315 130.958542,125.138794 
	C130.879822,124.351303 130.677811,123.414520 130.183609,122.854240 
	C121.731117,113.271805 121.450607,101.169060 120.103821,89.499557 
	C119.413300,83.516335 117.794365,77.576019 118.803223,71.200943 
	C122.901848,82.898056 125.079918,95.248817 128.094788,107.393539 
	C129.446335,112.837936 130.055481,118.866142 135.925537,122.431305 
	C137.954361,126.515564 137.051239,130.252136 135.422333,133.990143 
z"/>
<path fill="#D37C0C" opacity="1.000000" stroke="none" 
	d="
M97.885078,41.991207 
	C98.949448,41.782612 99.640831,41.886566 100.669067,42.085266 
	C101.291595,42.335144 101.547249,42.529720 102.012611,42.736671 
	C102.252357,42.709595 102.266327,42.660027 102.291504,42.654613 
	C103.654991,45.237312 103.339119,48.042778 103.395630,50.801373 
	C103.435417,52.743160 103.197998,54.742870 104.670624,56.865074 
	C106.303711,65.660110 105.382408,74.057114 105.049072,82.924561 
	C104.966591,83.706818 104.883980,84.014343 104.544647,84.727646 
	C101.678322,86.658760 99.322006,85.666611 96.679398,84.026154 
	C94.468193,77.652794 95.320900,71.472328 95.568054,65.416733 
	C95.824043,59.144901 96.532127,52.885612 96.468987,46.587254 
	C96.454002,45.092583 96.652229,43.606400 97.885078,41.991207 
z"/>
<path fill="#FCCE4A" opacity="1.000000" stroke="none" 
	d="
M86.699478,66.767883 
	C86.999771,67.444801 87.000771,67.888390 87.002563,68.664658 
	C88.386086,72.240196 84.865540,74.257248 85.037186,77.367958 
	C85.594109,87.460876 82.384651,97.082138 79.828163,106.565323 
	C77.094460,116.705856 73.802734,126.934563 67.395470,136.060638 
	C62.506031,134.955688 63.459938,131.660034 64.636528,128.721207 
	C65.921318,125.512131 67.606232,122.441658 69.746506,119.185036 
	C69.925682,118.812653 69.949860,118.378510 70.061646,118.192047 
	C71.135902,116.949013 71.474113,115.640961 71.771393,113.950699 
	C71.867661,113.623756 71.822708,113.269463 71.941200,113.135880 
	C72.753662,112.362846 73.000481,111.551559 72.957497,110.305153 
	C73.059013,109.111778 73.172981,108.246933 73.523918,107.153030 
	C75.746597,104.486671 75.083488,101.356674 75.908371,98.283646 
	C75.884720,97.945297 75.840424,97.454353 75.948128,97.232666 
	C78.282967,90.293938 80.091286,83.484177 80.754181,76.032288 
	C80.910988,75.293221 80.935280,74.913292 81.051407,74.260605 
	C81.609741,73.238396 81.873795,72.442505 81.825539,71.248779 
	C81.947838,70.950661 82.003418,70.982277 81.971710,70.979797 
	C82.953583,69.822075 82.621338,68.114288 83.897614,66.715561 
	C84.939148,66.199615 85.673096,66.205124 86.699478,66.767883 
z"/>
<path fill="#FDBE2D" opacity="1.000000" stroke="none" 
	d="
M98.016792,41.428238 
	C98.136009,55.483696 96.511185,69.242653 97.017403,83.534134 
	C98.148872,85.375427 98.293373,86.843376 97.124969,88.716568 
	C94.742134,88.779358 94.781967,86.931053 94.418541,85.647240 
	C90.902733,73.227730 92.151817,60.489552 92.059845,47.843987 
	C92.041901,45.376675 94.231506,43.836205 94.988998,41.277184 
	C95.950043,40.994247 96.862785,41.086033 98.016792,41.428238 
z"/>
<path fill="#3A98E1" opacity="1.000000" stroke="none" 
	d="
M152.218689,133.301193 
	C152.001465,132.587479 152.002319,132.174973 152.003143,131.453064 
	C152.167038,131.164078 152.351822,131.142075 152.491898,131.210968 
	C158.623169,134.226868 167.152176,135.088287 170.287125,140.666534 
	C173.074295,145.625977 171.202744,153.217148 171.334244,159.647842 
	C171.378113,161.792480 171.257446,163.940506 171.103119,166.545425 
	C168.923584,168.588486 166.897156,167.477112 164.523529,166.707672 
	C163.167862,165.549469 163.363281,164.423843 163.775528,163.287857 
	C166.607254,155.484619 165.974533,148.585556 159.519928,142.482330 
	C156.826187,139.935226 155.321442,136.164154 152.218689,133.301193 
z"/>
<path fill="#3A9CE1" opacity="1.000000" stroke="none" 
	d="
M163.685730,165.757843 
	C166.067932,166.328018 168.136459,166.657272 170.599609,166.995209 
	C171.045822,167.449890 171.097397,167.895905 171.070404,168.672287 
	C169.863190,170.320435 167.940811,170.044846 166.386475,171.337387 
	C165.834824,171.629669 165.597992,171.724579 164.975143,171.877655 
	C158.631226,172.061508 152.672485,171.948563 146.714493,171.998947 
	C144.693390,172.016037 142.805908,171.764786 141.030899,170.633728 
	C136.016006,167.438171 131.514603,163.555725 126.749550,160.028732 
	C124.863541,158.632736 123.682587,156.548279 124.042633,153.568573 
	C124.335625,152.635635 124.651756,152.191513 125.463120,151.678894 
	C127.925842,151.468903 129.195389,152.831985 130.294891,154.276352 
	C137.744003,164.061905 147.523758,167.620422 159.517059,165.314209 
	C160.841476,165.059540 162.118271,164.835754 163.685730,165.757843 
z"/>
<path fill="#DE7909" opacity="1.000000" stroke="none" 
	d="
M97.220016,127.273346 
	C96.982018,126.556870 96.961540,126.112328 96.964691,125.334633 
	C99.694847,122.682846 99.589127,118.422668 103.222496,116.497345 
	C104.056572,116.654411 104.429413,116.942902 104.795029,117.702286 
	C104.925217,126.147667 104.977135,134.236710 105.006821,142.823395 
	C103.299873,142.529709 101.535423,142.441895 99.290810,142.661118 
	C98.193031,142.129150 97.387947,141.886795 96.661026,141.016006 
	C96.400009,140.344055 96.408089,139.939438 96.688751,139.281494 
	C96.900803,137.299103 96.938019,135.570694 97.005089,133.410751 
	C98.000465,131.229492 97.359421,129.360748 97.220016,127.273346 
z"/>
<path fill="#469DE0" opacity="1.000000" stroke="none" 
	d="
M124.619675,152.862091 
	C124.635773,155.531631 125.542763,157.556854 127.560913,159.047012 
	C132.660324,162.812317 137.756180,166.584381 142.927124,170.249847 
	C144.971405,171.698959 147.431747,170.921555 149.699982,170.966049 
	C154.820740,171.066483 159.944763,171.001236 165.536377,171.009949 
	C166.302261,173.124771 164.631378,172.236023 163.389130,172.578537 
	C162.272446,172.712402 161.492645,172.780869 160.327332,172.768463 
	C156.889221,172.264771 153.823563,172.556961 150.397003,172.629547 
	C148.290131,172.779129 146.550186,172.818787 144.380859,172.783142 
	C142.108536,172.219681 140.207382,172.692322 137.966797,172.261475 
	C132.617966,171.952972 130.687546,167.507111 127.470009,164.880630 
	C125.947701,163.637970 124.651398,162.118439 123.096748,160.433594 
	C122.186440,158.483032 121.199577,156.894882 121.448807,154.573883 
	C122.168449,153.181824 123.112251,152.780762 124.619675,152.862091 
z"/>
<path fill="#469DE0" opacity="1.000000" stroke="none" 
	d="
M30.788795,160.313873 
	C31.561815,160.270187 32.534489,160.474670 32.621635,160.872925 
	C34.455704,169.254486 39.986588,170.954041 47.932205,171.305252 
	C55.339031,171.632660 61.107124,167.687836 67.808418,166.575012 
	C68.937599,166.387512 70.065941,166.194931 71.605003,166.007019 
	C68.134773,171.386230 63.071262,173.764404 56.297424,173.088837 
	C51.231998,172.583664 46.083477,172.911636 40.508514,172.820831 
	C39.865475,172.705826 39.685871,172.638580 39.228210,172.645035 
	C38.520786,172.736023 38.091423,172.753296 37.344650,172.711960 
	C36.224510,172.458588 35.410290,172.472122 34.288200,172.521759 
	C33.575996,172.574661 33.169815,172.624863 32.458900,172.631836 
	C31.751522,172.345825 31.489935,172.000793 31.117977,171.335999 
	C30.844116,171.134766 30.970793,171.085297 30.903158,171.092010 
	C30.633888,170.593201 30.514849,170.068283 30.454760,169.256760 
	C30.376793,168.550476 30.311020,168.114136 30.267368,167.346359 
	C30.774174,164.911575 30.348789,162.767242 30.788795,160.313873 
z"/>
<path fill="#FECA42" opacity="1.000000" stroke="none" 
	d="
M107.012505,144.959595 
	C107.064201,141.190384 109.520699,138.602936 112.539879,138.303055 
	C116.113495,137.948074 119.344711,140.106445 121.788231,143.130493 
	C123.074890,144.722855 122.683586,147.604782 125.861160,148.072250 
	C126.293701,150.598511 124.418571,151.551178 122.373978,152.762024 
	C121.279808,153.021362 120.546150,152.998383 119.473976,152.730865 
	C115.372551,151.756180 113.070267,148.677155 109.791199,146.841400 
	C109.508774,147.030930 109.125511,146.834961 109.035934,146.639252 
	C109.213417,146.268372 109.645020,146.034241 109.439674,145.735916 
	C109.067589,145.195404 109.711052,145.612289 109.024429,146.206284 
	C108.726463,146.374420 108.546669,146.296844 108.175110,145.996826 
	C107.817909,145.674881 107.652489,145.575424 107.311966,145.245346 
	C107.136864,145.014740 107.020210,145.017426 107.012505,144.959595 
z"/>
<path fill="#FDD041" opacity="1.000000" stroke="none" 
	d="
M96.461517,139.021637 
	C96.900497,139.464401 96.937408,139.901291 96.962059,140.667511 
	C96.842163,141.910736 96.125053,142.338425 95.205788,142.943420 
	C91.873062,146.301422 88.822159,149.545685 85.475342,152.935837 
	C83.180016,154.145279 81.293556,152.475937 78.994690,152.774139 
	C78.466393,152.617096 78.266487,152.525574 77.828506,152.213165 
	C77.106544,151.402496 76.991325,150.463303 75.707085,150.302856 
	C74.991112,150.084229 74.655350,149.811783 74.188934,149.178940 
	C73.515831,147.781235 73.179367,146.655457 73.672821,145.122375 
	C79.064957,144.699707 83.966469,143.653320 88.305450,139.853424 
	C89.411537,139.061035 90.301422,138.684830 91.660728,138.848511 
	C93.352303,139.004440 94.705879,139.010101 96.461517,139.021637 
z"/>
<path fill="#F9C750" opacity="1.000000" stroke="none" 
	d="
M135.001862,134.416229 
	C135.351318,130.526367 135.700409,127.053947 136.079254,123.147743 
	C139.579453,124.545120 143.430252,125.750160 146.429565,129.015976 
	C143.411804,132.415131 140.116180,135.612686 136.518066,138.939560 
	C136.007263,139.172348 135.798981,139.275787 135.295441,139.193420 
	C135.000626,137.616318 135.001053,136.224991 135.001862,134.416229 
z"/>
<path fill="#F7CB4C" opacity="1.000000" stroke="none" 
	d="
M69.635544,118.973846 
	C69.728607,122.294449 68.156548,125.290054 66.337822,128.106812 
	C64.648392,130.723312 64.210030,133.126923 66.669983,135.820175 
	C70.204575,137.229736 71.764946,139.552551 71.483513,143.326385 
	C69.361435,144.963928 68.283936,143.286423 67.192863,142.270508 
	C64.334946,139.609421 61.417950,136.973892 59.274139,133.203308 
	C58.516953,132.428940 57.924526,131.974503 57.301891,131.233673 
	C59.771843,129.126297 61.667694,126.729073 63.761948,124.061661 
	C65.749710,122.233940 67.547554,120.684486 69.635544,118.973846 
z"/>
<path fill="#469DE0" opacity="1.000000" stroke="none" 
	d="
M34.415688,137.798492 
	C28.601461,143.472855 33.609711,151.072861 31.216377,157.782211 
	C30.753399,158.215225 30.597637,158.361252 30.294558,158.222900 
	C30.084475,153.335785 30.203934,148.720871 29.898092,144.134323 
	C29.675589,140.797562 30.394773,138.474319 34.415688,137.798492 
z"/>
<path fill="#FDCA42" opacity="1.000000" stroke="none" 
	d="
M94.750946,39.714172 
	C92.405724,42.334072 90.042191,44.623180 87.346596,46.966316 
	C87.024841,43.650417 85.383530,39.838432 89.991135,37.673450 
	C91.871323,38.306625 93.301971,38.845001 94.750946,39.714172 
z"/>
<path fill="#F6C951" opacity="1.000000" stroke="none" 
	d="
M80.614037,75.961960 
	C82.814362,79.384247 80.472603,82.776855 79.801132,86.181152 
	C79.095078,89.760818 78.994095,93.640717 76.423492,96.926987 
	C77.484344,90.090897 78.912857,83.170830 80.614037,75.961960 
z"/>
<path fill="#F8DA6E" opacity="1.000000" stroke="none" 
	d="
M63.589203,123.861633 
	C62.553020,126.671661 62.883404,131.090714 57.539680,130.835663 
	C56.858295,130.458328 56.444912,129.969345 55.895973,129.188934 
	C56.628891,124.804916 61.011093,126.003944 63.589203,123.861633 
z"/>
<path fill="#E4BE59" opacity="1.000000" stroke="none" 
	d="
M90.163200,37.493076 
	C86.008080,39.238747 88.817268,43.657890 87.011658,46.608597 
	C87.230316,49.804806 86.667213,52.490524 85.410370,55.480343 
	C85.295982,50.868561 85.641281,45.922909 86.267784,41.013142 
	C86.513199,39.089859 86.392128,36.279926 90.163200,37.493076 
z"/>
<path fill="#BC680C" opacity="1.000000" stroke="none" 
	d="
M104.113350,56.616531 
	C100.599884,55.689102 102.295860,52.998516 102.074356,50.977604 
	C101.809105,48.557755 102.072075,46.080009 102.211487,43.138271 
	C102.652962,42.676121 102.989235,42.703037 103.581490,42.746494 
	C103.905281,42.965469 103.973106,43.167912 104.098129,43.685463 
	C106.313652,48.046135 105.988846,52.160324 104.113350,56.616531 
z"/>
<path fill="#F6C951" opacity="1.000000" stroke="none" 
	d="
M84.238968,66.719940 
	C83.946449,68.393753 83.301056,69.542953 82.219055,70.802170 
	C82.751144,66.129852 83.562286,61.282375 84.605820,56.117378 
	C84.838196,55.799854 84.952995,56.021740 85.033951,56.116867 
	C85.871872,56.890087 86.494202,57.651569 86.679230,59.071671 
	C86.141541,61.833641 85.699570,64.260826 84.238968,66.719940 
z"/>
<path fill="#F6C951" opacity="1.000000" stroke="none" 
	d="
M109.638763,147.287201 
	C110.515778,145.967911 111.688751,146.052856 112.460136,147.088821 
	C114.126518,149.326767 116.675179,150.085724 118.977585,151.647522 
	C118.040871,152.996704 116.886734,152.896545 115.275604,152.250351 
	C113.169807,150.546875 111.469276,149.045166 109.638763,147.287201 
z"/>
<path fill="#FCCE4A" opacity="1.000000" stroke="none" 
	d="
M118.993408,67.599335 
	C115.570854,65.912132 115.723610,62.796257 116.732117,59.255867 
	C118.227333,61.600311 118.730743,64.377724 118.993408,67.599335 
z"/>
<path fill="#F7CB4C" opacity="1.000000" stroke="none" 
	d="
M77.915016,152.365417 
	C80.246872,151.881714 82.611542,150.700211 84.834076,153.022705 
	C84.680222,154.477112 83.786835,155.301559 81.884964,155.210480 
	C81.273399,155.383469 80.984879,155.479233 80.379059,155.247498 
	C80.061768,154.919983 79.994736,154.986176 80.035080,154.962311 
	C79.170708,154.334824 77.989418,154.009537 77.915016,152.365417 
z"/>
<path fill="#498CCD" opacity="1.000000" stroke="none" 
	d="
M122.282036,153.722748 
	C122.436035,155.838806 122.699089,157.598679 122.951462,159.750702 
	C121.109154,159.147812 119.927170,157.607941 119.116959,155.363190 
	C118.518745,153.101532 120.157471,153.216339 121.577469,152.766052 
	C122.097206,152.966095 122.244148,153.166321 122.282036,153.722748 
z"/>
<path fill="#F6C951" opacity="1.000000" stroke="none" 
	d="
M75.634560,98.229065 
	C76.665855,101.053574 76.589661,104.023849 74.120888,106.795456 
	C74.302071,104.120255 74.843231,101.316551 75.634560,98.229065 
z"/>
<path fill="#498CCD" opacity="1.000000" stroke="none" 
	d="
M163.466553,172.732147 
	C163.924179,172.259491 164.796097,171.875061 165.836670,171.253586 
	C166.005295,171.016541 166.005219,171.003906 166.010864,171.007812 
	C167.210297,169.745453 168.896027,170.139282 170.709473,169.848755 
	C171.716003,172.076157 170.895584,173.055298 168.734436,172.987625 
	C167.116409,172.936951 165.498703,172.876465 163.466553,172.732147 
z"/>
<path fill="#F8DA6E" opacity="1.000000" stroke="none" 
	d="
M122.090912,152.653839 
	C121.050453,153.391556 120.219307,153.968475 119.209930,154.793488 
	C117.054436,155.363373 116.480705,153.415024 115.021210,152.351959 
	C115.977242,152.026199 117.084145,152.003830 118.606842,151.965698 
	C119.766006,151.970840 120.509377,151.991745 121.624069,152.037338 
	C122.097008,152.205688 122.198616,152.349365 122.090912,152.653839 
z"/>
<path fill="#469DE0" opacity="1.000000" stroke="none" 
	d="
M42.652397,134.088745 
	C42.586578,136.884201 40.920704,137.411270 38.282280,136.403503 
	C39.459209,135.461121 40.880383,134.754684 42.652397,134.088745 
z"/>
<path fill="#498CCD" opacity="1.000000" stroke="none" 
	d="
M150.474457,172.823547 
	C153.057358,171.350311 156.197113,172.013779 159.627106,172.459167 
	C156.934143,172.760925 153.926483,172.834274 150.474457,172.823547 
z"/>
<path fill="#3D6AAA" opacity="1.000000" stroke="none" 
	d="
M30.063019,158.388123 
	C30.147242,157.938538 30.527655,158.011810 30.718409,158.040497 
	C30.924379,158.493042 30.939598,158.916885 30.978172,159.658081 
	C30.909771,162.109879 30.818012,164.244324 30.507872,166.696838 
	C30.185925,164.289185 30.082359,161.563461 30.063019,158.388123 
z"/>
<path fill="#469DE0" opacity="1.000000" stroke="none" 
	d="
M171.120117,169.721024 
	C169.740082,170.727081 168.327988,171.170731 166.393433,171.014481 
	C166.384781,168.205994 168.598251,169.236938 170.596649,169.000839 
	C171.049515,169.159775 171.107193,169.316879 171.120117,169.721024 
z"/>
<path fill="#FDBE2D" opacity="1.000000" stroke="none" 
	d="
M95.137390,143.266083 
	C95.419586,142.452423 95.915222,141.847702 96.680328,141.119904 
	C97.719475,141.047348 98.504265,141.071655 98.800652,142.315216 
	C97.685417,142.889526 96.518120,143.182281 95.137390,143.266083 
z"/>
<path fill="#F7CB4C" opacity="1.000000" stroke="none" 
	d="
M72.703339,110.201805 
	C74.226959,111.063408 74.425507,112.061035 72.382050,112.951477 
	C72.193672,112.143860 72.327644,111.285431 72.703339,110.201805 
z"/>
<path fill="#F7CB4C" opacity="1.000000" stroke="none" 
	d="
M71.597984,113.843788 
	C71.802597,115.080833 72.627983,116.743500 70.536537,117.911079 
	C70.558395,116.691673 70.943352,115.377747 71.597984,113.843788 
z"/>
<path fill="#498CCD" opacity="1.000000" stroke="none" 
	d="
M137.922607,172.381058 
	C139.492874,172.182373 141.406616,172.210419 143.635925,172.473145 
	C142.056335,172.674469 140.161209,172.641129 137.922607,172.381058 
z"/>
<path fill="#3B99DF" opacity="1.000000" stroke="none" 
	d="
M74.356430,164.078308 
	C74.450081,163.232056 72.987701,161.099991 75.902649,161.929626 
	C75.603798,162.786469 75.114906,163.377060 74.356430,164.078308 
z"/>
<path fill="#3B99DF" opacity="1.000000" stroke="none" 
	d="
M151.101105,130.622070 
	C150.365387,130.798599 148.854691,133.201569 148.879486,130.075378 
	C149.723328,130.055038 150.325272,130.207199 151.101105,130.622070 
z"/>
<path fill="#F6C951" opacity="1.000000" stroke="none" 
	d="
M81.710701,71.182732 
	C82.479294,71.952347 82.911598,72.942444 81.383072,73.859634 
	C81.253349,73.130165 81.363457,72.272484 81.710701,71.182732 
z"/>
<path fill="#3D6AAA" opacity="1.000000" stroke="none" 
	d="
M34.348053,172.660126 
	C34.800007,171.816040 35.697540,171.875702 36.827480,172.451630 
	C36.256134,172.700806 35.485031,172.748291 34.348053,172.660126 
z"/>
<path fill="#469DE0" opacity="1.000000" stroke="none" 
	d="
M36.629890,136.854675 
	C36.441586,137.148834 35.945770,137.513107 35.114960,137.840256 
	C35.294106,137.510345 35.808243,137.217575 36.629890,136.854675 
z"/>
<path fill="#3894D9" opacity="1.000000" stroke="none" 
	d="
M80.058632,155.226547 
	C80.314201,154.969910 80.566643,155.019836 81.190498,155.178741 
	C81.499504,155.694687 81.437088,156.101700 81.183990,156.752075 
	C80.680710,156.508011 80.368103,156.020554 80.058632,155.226547 
z"/>
<path fill="#3D6AAA" opacity="1.000000" stroke="none" 
	d="
M30.842930,171.438721 
	C31.251745,171.436935 31.659370,171.739105 32.110580,172.314941 
	C31.387608,172.817169 31.086212,172.324081 30.842930,171.438721 
z"/>
<path fill="#3D6AAA" opacity="1.000000" stroke="none" 
	d="
M30.334351,169.268280 
	C30.620598,169.504913 30.798634,170.023026 30.906094,170.819931 
	C30.632393,170.582397 30.429264,170.066071 30.334351,169.268280 
z"/>
<path fill="#3D6AAA" opacity="1.000000" stroke="none" 
	d="
M39.219971,172.811096 
	C39.246880,172.637756 39.543610,172.556793 39.942707,172.624451 
	C39.859978,172.816544 39.674885,172.860016 39.219971,172.811096 
z"/>
<path fill="#FEC43B" opacity="1.000000" stroke="none" 
	d="
M107.186386,145.225342 
	C107.402657,145.077591 107.619919,145.216415 107.885994,145.602783 
	C107.656403,145.833176 107.407257,145.720383 107.186386,145.225342 
z"/>
<path fill="#F6C951" opacity="1.000000" stroke="none" 
	d="
M108.922287,146.439224 
	C109.047371,146.367889 109.188484,146.283768 109.137970,146.321594 
	C108.946350,146.443542 108.938316,146.426453 108.922287,146.439224 
z"/>
<path fill="#BC680C" opacity="1.000000" stroke="none" 
	d="
M102.120880,42.492031 
	C102.252357,42.709595 101.761032,42.778305 101.761032,42.778305 
	C101.761032,42.778305 101.311996,42.567684 101.158951,42.373852 
	C101.333740,42.211502 101.661568,42.242985 102.120880,42.492031 
z"/>
<path fill="#FCBC33" opacity="1.000000" stroke="none" 
	d="
M105.175522,117.851669 
	C104.581673,117.919144 104.360008,117.706665 104.107086,117.210258 
	C103.478920,116.356941 102.881577,115.684021 102.840569,114.852982 
	C102.362404,105.162964 101.548325,95.464470 103.588989,85.407257 
	C103.917824,84.838440 103.956169,84.671402 104.048691,84.253075 
	C104.582298,83.491089 104.957710,82.898170 105.701569,82.179115 
	C109.568001,81.457657 110.047401,84.572922 111.723022,86.797806 
	C113.205429,97.933540 110.485176,108.032433 105.175522,117.851669 
z"/>
<path fill="#3493DA" opacity="1.000000" stroke="none" 
	d="
M121.955612,153.130447 
	C121.881592,152.814636 121.934013,152.437057 121.964706,152.249542 
	C123.312881,150.948807 124.630356,149.835571 126.088821,148.431915 
	C126.695724,147.873230 127.161636,147.604980 127.882217,147.246094 
	C128.136887,147.155441 128.149368,147.165848 128.156021,147.172195 
	C129.112946,149.158264 128.076416,150.475128 126.332222,151.832275 
	C125.675964,152.100006 125.414352,152.288162 125.105118,152.781387 
	C124.252426,153.322693 123.509003,153.644653 122.469276,154.022781 
	C122.125198,153.868057 122.077415,153.657150 121.955612,153.130447 
z"/>
<path fill="#FECA42" opacity="1.000000" stroke="none" 
	d="
M70.970322,144.344986 
	C71.481430,140.770050 69.117599,138.819809 67.151001,136.308655 
	C71.248619,127.102814 74.490524,117.793861 78.219398,108.683891 
	C79.142807,106.427925 78.933693,104.135818 79.460838,101.884277 
	C81.493851,93.200905 84.297195,84.654167 83.576660,75.460953 
	C83.433594,73.635620 85.722778,71.619659 86.946861,69.344482 
	C89.079422,69.249466 88.843307,70.813965 89.025963,72.301987 
	C89.843994,78.966034 87.805115,85.216148 86.119141,91.461281 
	C85.514069,93.702614 84.907433,95.835976 84.998665,98.573318 
	C82.810135,109.715149 78.768143,119.798019 74.632698,129.865982 
	C73.829124,131.822342 74.188736,134.144089 74.818733,136.255066 
	C76.144897,140.698700 78.048843,141.699600 82.573044,140.383102 
	C84.474724,139.829742 86.342133,139.023148 88.699432,139.775131 
	C85.842461,144.512665 79.968925,146.614410 74.390579,145.044647 
	C73.424126,145.059052 72.845474,145.070145 71.987183,144.881927 
	C71.528862,144.721863 71.353134,144.636902 70.970322,144.344986 
z"/>
<path fill="#FDC63E" opacity="1.000000" stroke="none" 
	d="
M89.318817,139.976685 
	C87.083740,140.472885 85.123657,140.812668 83.259911,141.439056 
	C77.135460,143.497482 73.742500,141.379028 73.036636,134.832321 
	C72.657219,131.313370 73.505951,128.106354 74.966774,124.794487 
	C78.073578,117.751015 82.017021,110.940567 82.290535,102.883278 
	C82.332588,101.644196 82.588104,99.837875 84.631363,99.067108 
	C84.524437,102.597404 84.287918,106.246544 83.529854,109.783928 
	C81.690437,118.367218 84.043480,126.161781 87.381615,133.901321 
	C88.341187,136.126114 91.029869,136.207565 91.946663,138.653412 
	C91.211800,139.316360 90.424873,139.633957 89.318817,139.976685 
z"/>
<path fill="#D87604" opacity="1.000000" stroke="none" 
	d="
M103.497261,84.995468 
	C103.933052,95.357872 103.986633,105.710281 104.023041,116.531006 
	C101.470436,117.165749 102.003632,119.646370 101.036972,120.990532 
	C100.024979,122.397743 99.835144,124.471527 97.344055,124.962601 
	C96.955406,113.318939 96.922478,101.636398 96.829391,89.490555 
	C96.843254,87.631233 96.917274,86.235222 97.018494,84.420692 
	C99.068810,84.329941 101.091934,84.657700 103.497261,84.995468 
z"/>
<path fill="#FECA42" opacity="1.000000" stroke="none" 
	d="
M84.373283,66.999710 
	C83.769257,64.373161 84.755157,62.029526 85.847061,59.337238 
	C86.710129,58.575394 87.171669,58.968719 87.792709,59.746880 
	C87.627419,62.058147 86.654861,64.021172 87.000076,66.598328 
	C86.248650,67.000931 85.498520,67.000633 84.373283,66.999710 
z"/>
<path fill="#FDCA42" opacity="1.000000" stroke="none" 
	d="
M87.994598,59.620178 
	C87.500168,59.735966 87.006500,59.473877 86.253601,59.104984 
	C85.699799,58.264511 85.405228,57.530834 85.112778,56.504578 
	C85.114899,56.211998 85.519524,56.045361 85.734825,56.009453 
	C88.098045,56.145752 88.001419,57.722363 87.994598,59.620178 
z"/>
<path fill="#D87604" opacity="1.000000" stroke="none" 
	d="
M96.980011,127.428436 
	C98.620316,128.681320 98.092796,130.583878 97.303314,132.732483 
	C97.009140,131.271286 96.983337,129.563370 96.980011,127.428436 
z"/>
<path fill="#3B99DF" opacity="1.000000" stroke="none" 
	d="
M126.301926,152.145813 
	C126.661507,150.602280 127.323784,149.206985 128.074371,147.495117 
	C130.905304,146.461548 131.429932,148.942123 132.593872,150.366425 
	C133.830933,151.880203 134.458572,153.889374 136.658340,154.950363 
	C140.130707,159.987564 144.703659,162.691299 150.734955,163.752213 
	C156.082199,165.240051 161.389252,163.487564 163.379272,159.913132 
	C165.165207,156.705276 163.714249,150.608765 160.818115,147.237701 
	C157.305679,143.149277 153.302628,139.312088 152.005600,133.373550 
	C159.930496,137.029602 167.675140,150.332581 166.724854,158.910889 
	C166.482224,161.101120 164.996628,163.153641 164.040741,165.634109 
	C158.967880,166.925186 153.893234,167.070602 148.787613,167.024551 
	C140.536041,166.950104 135.392380,161.539642 130.237549,156.271118 
	C129.001602,155.007919 128.021606,153.440018 126.301926,152.145813 
z"/>
<path fill="#3593D9" opacity="1.000000" stroke="none" 
	d="
M151.227783,163.733704 
	C142.786896,163.970062 139.335373,161.931091 137.003052,155.368073 
	C139.554108,151.349075 143.294922,149.308456 147.175323,147.420334 
	C149.921799,146.083939 152.574219,146.259369 155.199799,147.634628 
	C156.939178,148.545685 159.494308,149.561447 158.613144,151.776657 
	C157.551361,154.445923 155.577408,151.976578 154.078445,151.527023 
	C150.788147,150.540192 145.447357,153.214050 144.339066,156.548935 
	C143.732941,158.372726 144.612549,159.413788 146.254395,159.916183 
	C147.666412,160.348236 149.108643,160.713470 150.562012,160.968826 
	C151.807724,161.187683 153.088150,161.209076 154.552994,161.334976 
	C154.167053,163.493698 152.275635,162.646423 151.227783,163.733704 
z"/>
<path fill="#FEC43B" opacity="1.000000" stroke="none" 
	d="
M135.006378,139.270569 
	C135.202545,139.012863 135.404877,139.018082 135.911392,139.046112 
	C136.002655,139.352692 135.789734,139.636475 135.315735,139.989059 
	C135.040604,139.883057 135.026596,139.708282 135.006378,139.270569 
z"/>
<path fill="#FEC43B" opacity="1.000000" stroke="none" 
	d="
M134.277893,140.890045 
	C134.141815,140.642334 134.334976,140.397369 134.839050,140.134583 
	C135.054230,140.427216 134.873276,140.685898 134.277893,140.890045 
z"/>
<path fill="#3894D9" opacity="1.000000" stroke="none" 
	d="
M77.952827,152.004517 
	C78.634399,152.822998 79.243103,153.596878 79.963615,154.654602 
	C78.309013,154.630096 76.542603,154.321747 74.387894,154.007935 
	C67.654457,163.121628 57.842236,164.907806 47.876911,166.162201 
	C42.562546,166.831161 39.273846,164.561935 37.487217,159.670502 
	C34.621059,151.823532 39.802616,142.942841 48.021908,141.682938 
	C51.116512,141.208557 54.206551,140.670853 57.670052,140.250687 
	C61.179539,138.365524 59.705830,135.924454 59.105049,133.258545 
	C62.799030,136.541504 66.488686,140.199615 70.470795,143.997879 
	C70.763245,144.138016 70.804428,144.169876 70.828125,144.180649 
	C72.600906,145.121780 73.384804,146.905670 74.736900,148.652176 
	C75.090134,149.269333 75.246086,149.595886 75.681152,149.973358 
	C76.694397,150.158813 77.143539,150.655380 77.721764,151.522400 
	C77.927292,151.795700 77.879951,151.959900 77.952827,152.004517 
z"/>
<path fill="#3B99DF" opacity="1.000000" stroke="none" 
	d="
M57.590878,139.949005 
	C55.788288,143.641495 51.840553,142.451004 48.767315,142.809174 
	C44.251652,143.335464 41.108154,145.143494 39.515404,149.182312 
	C37.695343,153.797531 36.955582,158.620651 40.583370,162.810760 
	C42.931362,165.522705 46.191254,165.183701 49.403496,164.732086 
	C58.402561,163.466873 66.791275,160.879471 73.653687,154.036011 
	C70.819527,163.346527 63.659195,167.120804 54.424240,168.002533 
	C52.950645,168.143204 51.455181,168.207535 50.014530,168.515976 
	C40.149021,170.628067 34.198414,165.921982 34.015213,155.781067 
	C33.997360,154.792740 33.869568,153.677490 34.256260,152.833496 
	C35.786278,149.494095 34.003170,144.415710 38.070057,142.680573 
	C44.064579,140.122971 50.302200,137.219666 57.590878,139.949005 
z"/>
<path fill="#FEBE29" opacity="1.000000" stroke="none" 
	d="
M106.010239,81.587067 
	C105.929108,82.873665 105.726418,83.660797 104.410698,83.953918 
	C104.037697,75.289536 103.972527,66.577293 103.819321,57.395653 
	C103.820885,52.922802 103.910484,48.919346 104.077705,44.458229 
	C108.174171,44.524796 112.121399,49.571152 110.602692,54.112049 
	C107.641022,62.967388 108.474876,72.327240 106.010239,81.587067 
z"/>
<path fill="#F7CB4C" opacity="1.000000" stroke="none" 
	d="
M74.928329,148.604767 
	C73.729935,147.443085 71.557693,146.892578 70.882965,144.517258 
	C71.754066,144.281952 72.656311,144.372482 73.781250,144.730591 
	C74.310127,146.087692 74.616295,147.177200 74.928329,148.604767 
z"/>
<path fill="#F7CB4C" opacity="1.000000" stroke="none" 
	d="
M77.957733,151.460358 
	C77.377281,151.351685 76.827278,150.907684 76.118759,150.243988 
	C76.195534,149.348984 76.136772,148.163834 77.266418,148.614563 
	C78.305534,149.029160 77.903152,150.230118 77.957733,151.460358 
z"/>
<path fill="#F8DA6E" opacity="1.000000" stroke="none" 
	d="
M63.545719,130.467606 
	C63.579033,130.522980 63.512405,130.412231 63.545719,130.467606 
z"/>
</svg>